<mxfile host="app.diagrams.net" agent="Mozilla/5.0 (Windows NT 10.0; Win64; x64) AppleWebKit/537.36 (KHTML, like Gecko) Chrome/141.0.0.0 Safari/537.36" version="28.2.5">
  <diagram name="Page-1" id="ovPtw5TPnxfs46Ux_JUN">
    <mxGraphModel dx="3473" dy="3042" grid="1" gridSize="10" guides="1" tooltips="1" connect="1" arrows="1" fold="1" page="1" pageScale="1" pageWidth="1000" pageHeight="1169" math="0" shadow="0">
      <root>
        <mxCell id="0" />
        <mxCell id="1" parent="0" />
        <mxCell id="Wf_CtHBdNh0gyv1zGz_e-1" value="" style="edgeStyle=orthogonalEdgeStyle;rounded=0;orthogonalLoop=1;jettySize=auto;html=1;" edge="1" parent="1" source="Wf_CtHBdNh0gyv1zGz_e-18" target="Wf_CtHBdNh0gyv1zGz_e-3">
          <mxGeometry relative="1" as="geometry" />
        </mxCell>
        <mxCell id="Wf_CtHBdNh0gyv1zGz_e-2" value="Start" style="ellipse;whiteSpace=wrap;html=1;" vertex="1" parent="1">
          <mxGeometry x="432" y="-1019" width="120" height="80" as="geometry" />
        </mxCell>
        <mxCell id="Wf_CtHBdNh0gyv1zGz_e-3" value="รับค่าตัวเลข 3 ตัวเป็นจำนวนเต็ม&lt;div&gt;ลงในตัวแปร&lt;/div&gt;" style="shape=parallelogram;perimeter=parallelogramPerimeter;whiteSpace=wrap;html=1;fixedSize=1;" vertex="1" parent="1">
          <mxGeometry x="387" y="-799" width="210" height="60" as="geometry" />
        </mxCell>
        <mxCell id="Wf_CtHBdNh0gyv1zGz_e-4" value="" style="edgeStyle=orthogonalEdgeStyle;rounded=0;orthogonalLoop=1;jettySize=auto;html=1;" edge="1" parent="1" source="Wf_CtHBdNh0gyv1zGz_e-6" target="Wf_CtHBdNh0gyv1zGz_e-8">
          <mxGeometry relative="1" as="geometry" />
        </mxCell>
        <mxCell id="Wf_CtHBdNh0gyv1zGz_e-5" style="edgeStyle=orthogonalEdgeStyle;rounded=0;orthogonalLoop=1;jettySize=auto;html=1;entryX=1;entryY=0.5;entryDx=0;entryDy=0;" edge="1" parent="1" source="Wf_CtHBdNh0gyv1zGz_e-6" target="Wf_CtHBdNh0gyv1zGz_e-14">
          <mxGeometry relative="1" as="geometry">
            <Array as="points">
              <mxPoint x="612" y="-644" />
              <mxPoint x="612" y="-279" />
            </Array>
          </mxGeometry>
        </mxCell>
        <mxCell id="Wf_CtHBdNh0gyv1zGz_e-6" value="เป็นตัวเลขใช่มั้ย" style="rhombus;whiteSpace=wrap;html=1;" vertex="1" parent="1">
          <mxGeometry x="432" y="-699" width="120" height="110" as="geometry" />
        </mxCell>
        <mxCell id="Wf_CtHBdNh0gyv1zGz_e-7" value="" style="edgeStyle=orthogonalEdgeStyle;rounded=0;orthogonalLoop=1;jettySize=auto;html=1;" edge="1" parent="1" source="Wf_CtHBdNh0gyv1zGz_e-8" target="Wf_CtHBdNh0gyv1zGz_e-10">
          <mxGeometry relative="1" as="geometry" />
        </mxCell>
        <mxCell id="Wf_CtHBdNh0gyv1zGz_e-8" value="นำตัวแปรที่เก็บคำตอบ มาบวกกับตัวแปรที่เก็บตัวเลข" style="whiteSpace=wrap;html=1;" vertex="1" parent="1">
          <mxGeometry x="407" y="-539" width="170" height="80" as="geometry" />
        </mxCell>
        <mxCell id="Wf_CtHBdNh0gyv1zGz_e-9" value="" style="edgeStyle=orthogonalEdgeStyle;rounded=0;orthogonalLoop=1;jettySize=auto;html=1;" edge="1" parent="1" source="Wf_CtHBdNh0gyv1zGz_e-14" target="Wf_CtHBdNh0gyv1zGz_e-11">
          <mxGeometry relative="1" as="geometry" />
        </mxCell>
        <mxCell id="Wf_CtHBdNh0gyv1zGz_e-10" value="แสดงตัวแปรที่เก็บคำตอบ" style="shape=parallelogram;perimeter=parallelogramPerimeter;whiteSpace=wrap;html=1;fixedSize=1;" vertex="1" parent="1">
          <mxGeometry x="392" y="-414" width="200" height="75" as="geometry" />
        </mxCell>
        <mxCell id="Wf_CtHBdNh0gyv1zGz_e-11" value="จบการทำงาน" style="ellipse;whiteSpace=wrap;html=1;" vertex="1" parent="1">
          <mxGeometry x="432" y="-229" width="120" height="80" as="geometry" />
        </mxCell>
        <mxCell id="Wf_CtHBdNh0gyv1zGz_e-12" value="" style="edgeStyle=orthogonalEdgeStyle;rounded=0;orthogonalLoop=1;jettySize=auto;html=1;entryX=0.5;entryY=0;entryDx=0;entryDy=0;" edge="1" parent="1" source="Wf_CtHBdNh0gyv1zGz_e-3" target="Wf_CtHBdNh0gyv1zGz_e-6">
          <mxGeometry relative="1" as="geometry">
            <mxPoint x="492" y="-879" as="sourcePoint" />
            <mxPoint x="492" y="-839" as="targetPoint" />
          </mxGeometry>
        </mxCell>
        <mxCell id="Wf_CtHBdNh0gyv1zGz_e-13" value="" style="edgeStyle=orthogonalEdgeStyle;rounded=0;orthogonalLoop=1;jettySize=auto;html=1;" edge="1" parent="1" source="Wf_CtHBdNh0gyv1zGz_e-10" target="Wf_CtHBdNh0gyv1zGz_e-14">
          <mxGeometry relative="1" as="geometry">
            <mxPoint x="492" y="-339" as="sourcePoint" />
            <mxPoint x="492" y="-229" as="targetPoint" />
          </mxGeometry>
        </mxCell>
        <mxCell id="Wf_CtHBdNh0gyv1zGz_e-14" value="" style="ellipse;whiteSpace=wrap;html=1;aspect=fixed;" vertex="1" parent="1">
          <mxGeometry x="482" y="-289" width="20" height="20" as="geometry" />
        </mxCell>
        <mxCell id="Wf_CtHBdNh0gyv1zGz_e-15" value="ใช่" style="text;html=1;align=center;verticalAlign=middle;whiteSpace=wrap;rounded=0;" vertex="1" parent="1">
          <mxGeometry x="472" y="-589" width="60" height="30" as="geometry" />
        </mxCell>
        <mxCell id="Wf_CtHBdNh0gyv1zGz_e-16" value="ไม่" style="text;html=1;align=center;verticalAlign=middle;whiteSpace=wrap;rounded=0;" vertex="1" parent="1">
          <mxGeometry x="542" y="-669" width="60" height="30" as="geometry" />
        </mxCell>
        <mxCell id="Wf_CtHBdNh0gyv1zGz_e-17" value="" style="edgeStyle=orthogonalEdgeStyle;rounded=0;orthogonalLoop=1;jettySize=auto;html=1;" edge="1" parent="1" source="Wf_CtHBdNh0gyv1zGz_e-2" target="Wf_CtHBdNh0gyv1zGz_e-18">
          <mxGeometry relative="1" as="geometry">
            <mxPoint x="492" y="-979" as="sourcePoint" />
            <mxPoint x="492" y="-799" as="targetPoint" />
          </mxGeometry>
        </mxCell>
        <mxCell id="Wf_CtHBdNh0gyv1zGz_e-18" value="กำหนดตัวแปร3ตัว&lt;div&gt;ใช้ในการเก็บจำนวน&lt;/div&gt;&lt;div&gt;เก็บตัวเลขที่รับมา&lt;/div&gt;&lt;div&gt;และเก็บคำตอบ&lt;/div&gt;" style="rounded=0;whiteSpace=wrap;html=1;" vertex="1" parent="1">
          <mxGeometry x="392" y="-909" width="200" height="70" as="geometry" />
        </mxCell>
      </root>
    </mxGraphModel>
  </diagram>
</mxfile>
